<svg width="147" height="65" viewBox="0 0 147 65" fill="none" xmlns="http://www.w3.org/2000/svg">
<path d="M52.0854 24.0791H54.8882V28.625H52.0854V33H46.8389V28.625H35.2861V23.3784L45.9673 8.49316H52.0854V24.0791ZM46.8389 24.0791V14.6284L40.1909 24.0791H46.8389ZM59.2803 27.9243L63.1255 30.1973L58.5796 37.5459L55.4351 35.9736L59.2803 27.9243ZM72.5249 28.0952C73.3224 28.8016 74.2681 29.1548 75.3618 29.1548C76.467 29.1548 77.4126 28.8016 78.1987 28.0952C78.9963 27.3774 79.395 26.5628 79.395 25.6514C79.395 24.7399 78.9963 23.931 78.1987 23.2246C77.4126 22.5068 76.467 22.1479 75.3618 22.1479C74.2681 22.1479 73.3224 22.5068 72.5249 23.2246C71.7388 23.931 71.3457 24.7399 71.3457 25.6514C71.3457 26.5628 71.7388 27.3774 72.5249 28.0952ZM73.0889 17.1406C73.6813 17.6761 74.4447 17.9438 75.3789 17.9438C76.3132 17.9438 77.0708 17.6761 77.6519 17.1406C78.2329 16.6051 78.5234 15.9443 78.5234 15.1582C78.5234 14.3607 78.2329 13.6942 77.6519 13.1587C77.0708 12.6232 76.3132 12.3555 75.3789 12.3555C74.4447 12.3555 73.6813 12.6232 73.0889 13.1587C72.5078 13.6942 72.2173 14.3607 72.2173 15.1582C72.2173 15.9443 72.5078 16.6051 73.0889 17.1406ZM81.7534 31.2056C80.0672 32.755 77.9367 33.5298 75.3618 33.5298C72.7983 33.5298 70.6678 32.755 68.9702 31.2056C67.284 29.6447 66.4409 27.7933 66.4409 25.6514C66.4409 24.8994 66.5662 24.1816 66.8169 23.498C67.0789 22.8145 67.3866 22.2505 67.7397 21.8062C68.0929 21.3618 68.4461 20.9744 68.7993 20.644C69.1639 20.3136 69.4772 20.0687 69.7393 19.9092L70.1152 19.7041C70.0469 19.6585 69.95 19.5959 69.8247 19.5161C69.6994 19.425 69.4715 19.2313 69.1411 18.9351C68.8107 18.6274 68.5202 18.3027 68.2695 17.9609C68.0303 17.6077 67.8138 17.152 67.6201 16.5938C67.4264 16.0241 67.3296 15.4259 67.3296 14.7993C67.3296 12.9764 68.0986 11.387 69.6367 10.0312C71.1748 8.66406 73.0832 7.98047 75.3618 7.98047C77.6519 7.98047 79.5659 8.66406 81.104 10.0312C82.6535 11.387 83.4282 12.9764 83.4282 14.7993C83.4282 15.7791 83.1947 16.6792 82.7275 17.4995C82.2604 18.3084 81.7933 18.8781 81.3262 19.2085L80.6255 19.7041C80.7166 19.7497 80.842 19.8237 81.0015 19.9263C81.1724 20.0288 81.4686 20.2624 81.8901 20.627C82.3231 20.9915 82.6991 21.3903 83.0181 21.8232C83.3371 22.2562 83.6276 22.8145 83.8896 23.498C84.1631 24.1816 84.2998 24.8994 84.2998 25.6514C84.2998 27.7933 83.451 29.6447 81.7534 31.2056ZM101.563 15.251L94.0679 38.249H91.8096L99.3169 15.251H101.563ZM115.577 21.3789C117.326 21.3789 118.763 21.9323 119.886 23.0391C121.009 24.1458 121.57 25.5496 121.57 27.2505C121.57 29.0164 120.997 30.4569 119.849 31.5718C118.702 32.6867 117.192 33.2441 115.32 33.2441C114.523 33.2441 113.766 33.1506 113.05 32.9634C112.334 32.7681 111.74 32.5402 111.268 32.2798C110.804 32.0112 110.401 31.7427 110.059 31.4741C109.717 31.2056 109.473 30.9818 109.327 30.8027L109.07 30.4976L110.828 28.752C110.861 28.8008 110.918 28.874 110.999 28.9717C111.08 29.0612 111.264 29.224 111.548 29.46C111.833 29.6878 112.134 29.8913 112.452 30.0703C112.769 30.2412 113.184 30.3999 113.697 30.5464C114.218 30.6847 114.759 30.7539 115.32 30.7539C116.321 30.7539 117.155 30.4202 117.823 29.7529C118.49 29.0856 118.824 28.2515 118.824 27.2505C118.824 26.2495 118.49 25.4154 117.823 24.748C117.155 24.0807 116.321 23.7471 115.32 23.7471C114.588 23.7471 113.929 23.8813 113.343 24.1499C112.765 24.4185 112.366 24.687 112.146 24.9556L111.829 25.3706H109.827L110.328 15.4951H120.447V17.9976H112.83L112.574 22.1235C113.241 21.6271 114.242 21.3789 115.577 21.3789ZM127.088 30.4854C127.413 30.8109 127.576 31.1934 127.576 31.6328C127.576 32.0641 127.413 32.4425 127.088 32.7681C126.762 33.0854 126.38 33.2441 125.94 33.2441C125.509 33.2441 125.131 33.0854 124.805 32.7681C124.48 32.4425 124.317 32.0641 124.317 31.6328C124.317 31.1934 124.48 30.8109 124.805 30.4854C125.131 30.1598 125.509 29.9971 125.94 29.9971C126.38 29.9971 126.762 30.1598 127.088 30.4854ZM132.471 30.8027C131.047 29.167 130.335 26.9819 130.335 24.2476C130.335 21.5132 131.047 19.3322 132.471 17.7046C133.895 16.0688 135.641 15.251 137.708 15.251C139.775 15.251 141.521 16.0688 142.945 17.7046C144.369 19.3322 145.081 21.5132 145.081 24.2476C145.081 26.9819 144.369 29.167 142.945 30.8027C141.521 32.4303 139.775 33.2441 137.708 33.2441C135.641 33.2441 133.895 32.4303 132.471 30.8027ZM140.967 29.0205C141.879 27.8568 142.334 26.2658 142.334 24.2476C142.334 22.2293 141.879 20.6424 140.967 19.4868C140.064 18.3312 138.978 17.7534 137.708 17.7534C136.438 17.7534 135.348 18.3312 134.437 19.4868C133.533 20.6424 133.082 22.2293 133.082 24.2476C133.082 26.2658 133.533 27.8568 134.437 29.0205C135.348 30.1761 136.438 30.7539 137.708 30.7539C138.978 30.7539 140.064 30.1761 140.967 29.0205Z" fill="black"/>
<path d="M11.9565 8L15.611 15.2414L23.3278 16.6373L17.8696 22.5086L18.9844 30.6127L11.9565 27L4.92865 30.6127L6.04343 22.5086L0.585194 16.6373L8.30203 15.2414L11.9565 8Z" fill="#FFAC46"/>
<path d="M7.90625 61H0.703125C0.703125 60.2656 0.851562 59.5938 1.14844 58.9844C1.45052 58.375 1.82292 57.8854 2.26562 57.5156C2.70833 57.1406 3.1875 56.7656 3.70312 56.3906C4.21875 56.0156 4.69792 55.6823 5.14062 55.3906C5.58333 55.099 5.95312 54.737 6.25 54.3047C6.55208 53.8724 6.70312 53.4115 6.70312 52.9219C6.70312 52.2708 6.48958 51.7474 6.0625 51.3516C5.63542 50.9557 5.04948 50.7578 4.30469 50.7578C3.92969 50.7578 3.58854 50.8255 3.28125 50.9609C2.97917 51.0911 2.74479 51.25 2.57812 51.4375C2.41667 51.625 2.28125 51.8125 2.17188 52C2.06771 52.1875 1.99479 52.349 1.95312 52.4844L1.90625 52.6797L0.859375 52.2031C0.869792 52.1302 0.893229 52.0365 0.929688 51.9219C0.971354 51.8073 1.07552 51.6042 1.24219 51.3125C1.41406 51.0208 1.61458 50.763 1.84375 50.5391C2.07292 50.3151 2.40625 50.1094 2.84375 49.9219C3.28125 49.7344 3.76823 49.6406 4.30469 49.6406C5.3724 49.6406 6.23958 49.9531 6.90625 50.5781C7.57292 51.2031 7.90625 51.9844 7.90625 52.9219C7.90625 53.4635 7.78125 53.9661 7.53125 54.4297C7.28646 54.8932 6.97656 55.2839 6.60156 55.6016C6.23177 55.9141 5.8125 56.2422 5.34375 56.5859C4.875 56.9245 4.42969 57.2396 4.00781 57.5312C3.58594 57.8177 3.19271 58.1667 2.82812 58.5781C2.46875 58.9896 2.21354 59.4245 2.0625 59.8828H7.90625V61ZM13.8203 53.7969C14.8984 53.7969 15.7943 54.151 16.5078 54.8594C17.2214 55.5625 17.5781 56.4349 17.5781 57.4766C17.5781 58.5651 17.2266 59.4505 16.5234 60.1328C15.8203 60.8151 14.8932 61.1562 13.7422 61.1562C13.2839 61.1562 12.8411 61.099 12.4141 60.9844C11.987 60.8646 11.6354 60.7266 11.3594 60.5703C11.0885 60.4089 10.849 60.2448 10.6406 60.0781C10.4323 59.9115 10.2865 59.7708 10.2031 59.6562L10.0625 59.4766L10.8594 58.6797C10.8802 58.7109 10.9167 58.7604 10.9688 58.8281C11.026 58.8906 11.1432 59 11.3203 59.1562C11.5026 59.3073 11.6953 59.4453 11.8984 59.5703C12.1016 59.6901 12.3672 59.7995 12.6953 59.8984C13.0286 59.9922 13.3776 60.0391 13.7422 60.0391C14.5443 60.0391 15.1849 59.8047 15.6641 59.3359C16.1432 58.8672 16.3828 58.2474 16.3828 57.4766C16.3828 56.7214 16.1432 56.1068 15.6641 55.6328C15.1901 55.1589 14.5755 54.9219 13.8203 54.9219C13.3203 54.9219 12.862 55.0234 12.4453 55.2266C12.0286 55.4297 11.7396 55.625 11.5781 55.8125L11.3359 56.1172H10.4609L10.8594 49.7969H16.8594V50.9219H11.8984L11.6562 54.4375C11.7188 54.3958 11.8073 54.3385 11.9219 54.2656C12.0365 54.1875 12.2786 54.0911 12.6484 53.9766C13.0234 53.8568 13.4141 53.7969 13.8203 53.7969ZM21.75 51.9922C21.1042 52.8151 20.7812 53.9531 20.7812 55.4062C20.7812 56.8542 21.1042 57.9896 21.75 58.8125C22.3958 59.6302 23.1719 60.0391 24.0781 60.0391C24.974 60.0391 25.7422 59.6276 26.3828 58.8047C27.0234 57.9766 27.3438 56.8411 27.3438 55.3984C27.3438 53.9453 27.0208 52.8099 26.375 51.9922C25.7292 51.1693 24.9583 50.7578 24.0625 50.7578C23.1667 50.7578 22.3958 51.1693 21.75 51.9922ZM27.2188 51.2266C28.1042 52.2786 28.5469 53.6693 28.5469 55.3984C28.5469 57.1276 28.1068 58.5208 27.2266 59.5781C26.3464 60.6302 25.2969 61.1562 24.0781 61.1562C22.849 61.1562 21.7917 60.6302 20.9062 59.5781C20.026 58.5208 19.5859 57.1276 19.5859 55.3984C19.5859 53.6693 20.0286 52.2786 20.9141 51.2266C21.7995 50.1693 22.849 49.6406 24.0625 49.6406C25.2812 49.6406 26.3333 50.1693 27.2188 51.2266ZM34.1406 59.8828H33.1016V56.8438H30.1406V55.7969H33.1016V52.7578H34.1406V55.7969H37.1016V56.8438H34.1406V59.8828ZM47.3125 59.2656C47.8646 58.6927 48.1406 57.9922 48.1406 57.1641C48.1406 56.3307 47.8646 55.6302 47.3125 55.0625C46.7656 54.4896 46.1068 54.2031 45.3359 54.2031C44.5703 54.2031 43.9115 54.4896 43.3594 55.0625C42.8125 55.6302 42.5391 56.3281 42.5391 57.1562C42.5391 57.9792 42.8125 58.6797 43.3594 59.2578C43.9115 59.8307 44.5703 60.1172 45.3359 60.1172C46.1068 60.1172 46.7656 59.8333 47.3125 59.2656ZM42.5625 60C41.8021 59.2292 41.4219 58.2839 41.4219 57.1641C41.4219 56.0391 41.8021 55.0911 42.5625 54.3203C43.3281 53.5443 44.2552 53.1562 45.3438 53.1562C46.4323 53.1562 47.3568 53.5443 48.1172 54.3203C48.8776 55.0911 49.2578 56.0391 49.2578 57.1641C49.2578 58.2839 48.8776 59.2292 48.1172 60C47.3568 60.7708 46.4323 61.1562 45.3438 61.1562C44.2552 61.1562 43.3281 60.7708 42.5625 60ZM51.2656 61V53.3203H52.3828V59.9609H56.625V53.3203H57.7422V59.9609H58.9453V62.9219H57.8203V61H51.2656ZM67.5 57.5781L61.2578 57.5625C61.2995 58.2552 61.5833 58.8542 62.1094 59.3594C62.6406 59.8646 63.263 60.1172 63.9766 60.1172C64.4557 60.1172 64.901 60.0104 65.3125 59.7969C65.724 59.5833 66.0156 59.3698 66.1875 59.1562L66.4609 58.8438L67.1797 59.5625C67.1484 59.6042 67.1016 59.6641 67.0391 59.7422C66.9818 59.8151 66.8516 59.9427 66.6484 60.125C66.4505 60.3021 66.2344 60.4609 66 60.6016C65.7708 60.737 65.4714 60.8646 65.1016 60.9844C64.737 61.099 64.362 61.1562 63.9766 61.1562C62.9297 61.1562 62.0286 60.7682 61.2734 59.9922C60.5182 59.2109 60.1406 58.2656 60.1406 57.1562C60.1406 56.0469 60.513 55.1042 61.2578 54.3281C62.0078 53.5469 62.888 53.1562 63.8984 53.1562C64.9453 53.1562 65.8203 53.5208 66.5234 54.25C67.2266 54.974 67.5781 55.8906 67.5781 57L67.5 57.5781ZM65.6172 54.8828C65.1432 54.4297 64.5703 54.2031 63.8984 54.2031C63.2266 54.2031 62.6406 54.4401 62.1406 54.9141C61.6406 55.388 61.3464 55.9505 61.2578 56.6016H66.4609C66.3776 55.9089 66.0964 55.3359 65.6172 54.8828ZM75.0938 61V57.6406H70.6953V61H69.5781V53.3203H70.6953V56.6016H75.0938V53.3203H76.2188V61H75.0938ZM84.1094 59.2656C84.6615 58.6927 84.9375 57.9922 84.9375 57.1641C84.9375 56.3307 84.6615 55.6302 84.1094 55.0625C83.5625 54.4896 82.9036 54.2031 82.1328 54.2031C81.3672 54.2031 80.7083 54.4896 80.1562 55.0625C79.6094 55.6302 79.3359 56.3281 79.3359 57.1562C79.3359 57.9792 79.6094 58.6797 80.1562 59.2578C80.7083 59.8307 81.3672 60.1172 82.1328 60.1172C82.9036 60.1172 83.5625 59.8333 84.1094 59.2656ZM79.3594 60C78.599 59.2292 78.2188 58.2839 78.2188 57.1641C78.2188 56.0391 78.599 55.0911 79.3594 54.3203C80.125 53.5443 81.0521 53.1562 82.1406 53.1562C83.2292 53.1562 84.1536 53.5443 84.9141 54.3203C85.6745 55.0911 86.0547 56.0391 86.0547 57.1641C86.0547 58.2839 85.6745 59.2292 84.9141 60C84.1536 60.7708 83.2292 61.1562 82.1406 61.1562C81.0521 61.1562 80.125 60.7708 79.3594 60ZM89.1797 58.8438V61H88.0625V53.3203H89.1797V57.3984L93.0156 53.3203H94.3828L91.4219 56.4375L94.7031 61H93.4219L90.7031 57.2422L89.1797 58.8438Z" fill="black"/>
</svg>
