<svg width="146" height="65" viewBox="0 0 146 65" fill="none" xmlns="http://www.w3.org/2000/svg">
<path d="M52.2007 24.0791H55.0034V28.625H52.2007V33H46.9541V28.625H35.4014V23.3784L46.0825 8.49316H52.2007V24.0791ZM46.9541 24.0791V14.6284L40.3062 24.0791H46.9541ZM59.3955 27.9243L63.2407 30.1973L58.6948 37.5459L55.5503 35.9736L59.3955 27.9243ZM79.1685 20.0459C79.2824 20.0915 79.4362 20.1598 79.6299 20.251C79.835 20.3307 80.1882 20.5358 80.6895 20.8662C81.1908 21.1852 81.6294 21.5555 82.0054 21.9771C82.3927 22.3986 82.7459 22.9854 83.0649 23.7373C83.384 24.4779 83.5435 25.2925 83.5435 26.1812C83.5435 28.1864 82.7061 29.9124 81.0312 31.3594C79.3678 32.8063 77.1689 33.5298 74.4346 33.5298C73.2725 33.5298 72.1502 33.3931 71.0679 33.1196C69.9969 32.8576 69.1196 32.5386 68.436 32.1626C67.7524 31.7866 67.1486 31.4163 66.6245 31.0518C66.1118 30.6758 65.7415 30.3454 65.5137 30.0605L65.1548 29.6675L68.3164 26.3521C68.362 26.4204 68.436 26.5173 68.5386 26.6426C68.6411 26.7565 68.8747 26.9673 69.2393 27.2749C69.6038 27.5711 69.9855 27.8389 70.3843 28.0781C70.7944 28.306 71.3128 28.5111 71.9395 28.6934C72.5775 28.8757 73.2326 28.9668 73.9048 28.9668C75.2606 28.9668 76.2974 28.6706 77.0151 28.0781C77.7443 27.4857 78.1089 26.7337 78.1089 25.8223C78.1089 24.9108 77.75 24.1589 77.0322 23.5664C76.3258 22.974 75.346 22.6777 74.0928 22.6777H71.4609V18.3027H73.9048C74.9302 18.3027 75.7391 18.0293 76.3315 17.4824C76.9354 16.9355 77.2373 16.2178 77.2373 15.3291C77.2373 14.5088 76.9411 13.8366 76.3486 13.3125C75.7562 12.7884 74.9416 12.5264 73.9048 12.5264C73.0161 12.5264 72.1787 12.7201 71.3926 13.1074C70.6178 13.4948 70.0596 13.8708 69.7178 14.2354L69.188 14.7993L66.0435 11.6548C66.1118 11.5636 66.2144 11.4383 66.3511 11.2788C66.4878 11.1079 66.8125 10.806 67.3252 10.373C67.8493 9.9401 68.4076 9.56982 69 9.26221C69.5924 8.9432 70.3786 8.65267 71.3584 8.39062C72.3382 8.11719 73.3636 7.98047 74.4346 7.98047C76.9069 7.98047 78.895 8.63558 80.3989 9.9458C81.9028 11.2446 82.6548 12.8625 82.6548 14.7993C82.6548 15.5171 82.5295 16.1893 82.2788 16.8159C82.0396 17.4312 81.749 17.9325 81.4072 18.3198C81.0768 18.7072 80.7407 19.0376 80.3989 19.311C80.0685 19.5731 79.7723 19.7611 79.5103 19.875L79.1685 20.0459ZM100.448 15.251L92.9526 38.249H90.6943L98.2017 15.251H100.448ZM114.461 21.3789C116.211 21.3789 117.647 21.9323 118.771 23.0391C119.894 24.1458 120.455 25.5496 120.455 27.2505C120.455 29.0164 119.881 30.4569 118.734 31.5718C117.586 32.6867 116.077 33.2441 114.205 33.2441C113.408 33.2441 112.651 33.1506 111.935 32.9634C111.218 32.7681 110.624 32.5402 110.152 32.2798C109.688 32.0112 109.286 31.7427 108.944 31.4741C108.602 31.2056 108.358 30.9818 108.211 30.8027L107.955 30.4976L109.713 28.752C109.745 28.8008 109.802 28.874 109.884 28.9717C109.965 29.0612 110.148 29.224 110.433 29.46C110.718 29.6878 111.019 29.8913 111.336 30.0703C111.654 30.2412 112.069 30.3999 112.582 30.5464C113.102 30.6847 113.644 30.7539 114.205 30.7539C115.206 30.7539 116.04 30.4202 116.708 29.7529C117.375 29.0856 117.708 28.2515 117.708 27.2505C117.708 26.2495 117.375 25.4154 116.708 24.748C116.04 24.0807 115.206 23.7471 114.205 23.7471C113.473 23.7471 112.813 23.8813 112.228 24.1499C111.65 24.4185 111.251 24.687 111.031 24.9556L110.714 25.3706H108.712L109.212 15.4951H119.332V17.9976H111.715L111.458 22.1235C112.126 21.6271 113.127 21.3789 114.461 21.3789ZM125.973 30.4854C126.298 30.8109 126.461 31.1934 126.461 31.6328C126.461 32.0641 126.298 32.4425 125.973 32.7681C125.647 33.0854 125.265 33.2441 124.825 33.2441C124.394 33.2441 124.015 33.0854 123.69 32.7681C123.364 32.4425 123.202 32.0641 123.202 31.6328C123.202 31.1934 123.364 30.8109 123.69 30.4854C124.015 30.1598 124.394 29.9971 124.825 29.9971C125.265 29.9971 125.647 30.1598 125.973 30.4854ZM131.356 30.8027C129.932 29.167 129.22 26.9819 129.22 24.2476C129.22 21.5132 129.932 19.3322 131.356 17.7046C132.78 16.0688 134.526 15.251 136.593 15.251C138.66 15.251 140.405 16.0688 141.83 17.7046C143.254 19.3322 143.966 21.5132 143.966 24.2476C143.966 26.9819 143.254 29.167 141.83 30.8027C140.405 32.4303 138.66 33.2441 136.593 33.2441C134.526 33.2441 132.78 32.4303 131.356 30.8027ZM139.852 29.0205C140.764 27.8568 141.219 26.2658 141.219 24.2476C141.219 22.2293 140.764 20.6424 139.852 19.4868C138.949 18.3312 137.862 17.7534 136.593 17.7534C135.323 17.7534 134.233 18.3312 133.321 19.4868C132.418 20.6424 131.966 22.2293 131.966 24.2476C131.966 26.2658 132.418 27.8568 133.321 29.0205C134.233 30.1761 135.323 30.7539 136.593 30.7539C137.862 30.7539 138.949 30.1761 139.852 29.0205Z" fill="black"/>
<path d="M11.9565 8L15.611 15.2414L23.3278 16.6373L17.8696 22.5086L18.9844 30.6127L11.9565 27L4.92865 30.6127L6.04343 22.5086L0.585194 16.6373L8.30203 15.2414L11.9565 8Z" fill="#FFAC46"/>
<path d="M3.25 49.7969H4.13281V61H2.92969V52.0391H0.851562V51.3203C1.21615 51.3099 1.54427 51.25 1.83594 51.1406C2.1276 51.026 2.35938 50.8984 2.53125 50.7578C2.70312 50.612 2.84375 50.4661 2.95312 50.3203C3.06771 50.1745 3.14583 50.0547 3.1875 49.9609L3.25 49.7969ZM8.92969 51.9922C8.28385 52.8151 7.96094 53.9531 7.96094 55.4062C7.96094 56.8542 8.28385 57.9896 8.92969 58.8125C9.57552 59.6302 10.3516 60.0391 11.2578 60.0391C12.1536 60.0391 12.9219 59.6276 13.5625 58.8047C14.2031 57.9766 14.5234 56.8411 14.5234 55.3984C14.5234 53.9453 14.2005 52.8099 13.5547 51.9922C12.9089 51.1693 12.138 50.7578 11.2422 50.7578C10.3464 50.7578 9.57552 51.1693 8.92969 51.9922ZM14.3984 51.2266C15.2839 52.2786 15.7266 53.6693 15.7266 55.3984C15.7266 57.1276 15.2865 58.5208 14.4062 59.5781C13.526 60.6302 12.4766 61.1562 11.2578 61.1562C10.0286 61.1562 8.97135 60.6302 8.08594 59.5781C7.20573 58.5208 6.76562 57.1276 6.76562 55.3984C6.76562 53.6693 7.20833 52.2786 8.09375 51.2266C8.97917 50.1693 10.0286 49.6406 11.2422 49.6406C12.4609 49.6406 13.513 50.1693 14.3984 51.2266ZM22.8516 51.9922C22.2057 52.8151 21.8828 53.9531 21.8828 55.4062C21.8828 56.8542 22.2057 57.9896 22.8516 58.8125C23.4974 59.6302 24.2734 60.0391 25.1797 60.0391C26.0755 60.0391 26.8438 59.6276 27.4844 58.8047C28.125 57.9766 28.4453 56.8411 28.4453 55.3984C28.4453 53.9453 28.1224 52.8099 27.4766 51.9922C26.8307 51.1693 26.0599 50.7578 25.1641 50.7578C24.2682 50.7578 23.4974 51.1693 22.8516 51.9922ZM28.3203 51.2266C29.2057 52.2786 29.6484 53.6693 29.6484 55.3984C29.6484 57.1276 29.2083 58.5208 28.3281 59.5781C27.4479 60.6302 26.3984 61.1562 25.1797 61.1562C23.9505 61.1562 22.8932 60.6302 22.0078 59.5781C21.1276 58.5208 20.6875 57.1276 20.6875 55.3984C20.6875 53.6693 21.1302 52.2786 22.0156 51.2266C22.901 50.1693 23.9505 49.6406 25.1641 49.6406C26.3828 49.6406 27.4349 50.1693 28.3203 51.2266ZM33.7266 51.9922C33.0807 52.8151 32.7578 53.9531 32.7578 55.4062C32.7578 56.8542 33.0807 57.9896 33.7266 58.8125C34.3724 59.6302 35.1484 60.0391 36.0547 60.0391C36.9505 60.0391 37.7188 59.6276 38.3594 58.8047C39 57.9766 39.3203 56.8411 39.3203 55.3984C39.3203 53.9453 38.9974 52.8099 38.3516 51.9922C37.7057 51.1693 36.9349 50.7578 36.0391 50.7578C35.1432 50.7578 34.3724 51.1693 33.7266 51.9922ZM39.1953 51.2266C40.0807 52.2786 40.5234 53.6693 40.5234 55.3984C40.5234 57.1276 40.0833 58.5208 39.2031 59.5781C38.3229 60.6302 37.2734 61.1562 36.0547 61.1562C34.8255 61.1562 33.7682 60.6302 32.8828 59.5781C32.0026 58.5208 31.5625 57.1276 31.5625 55.3984C31.5625 53.6693 32.0052 52.2786 32.8906 51.2266C33.776 50.1693 34.8255 49.6406 36.0391 49.6406C37.2578 49.6406 38.3099 50.1693 39.1953 51.2266ZM44.6016 51.9922C43.9557 52.8151 43.6328 53.9531 43.6328 55.4062C43.6328 56.8542 43.9557 57.9896 44.6016 58.8125C45.2474 59.6302 46.0234 60.0391 46.9297 60.0391C47.8255 60.0391 48.5938 59.6276 49.2344 58.8047C49.875 57.9766 50.1953 56.8411 50.1953 55.3984C50.1953 53.9453 49.8724 52.8099 49.2266 51.9922C48.5807 51.1693 47.8099 50.7578 46.9141 50.7578C46.0182 50.7578 45.2474 51.1693 44.6016 51.9922ZM50.0703 51.2266C50.9557 52.2786 51.3984 53.6693 51.3984 55.3984C51.3984 57.1276 50.9583 58.5208 50.0781 59.5781C49.1979 60.6302 48.1484 61.1562 46.9297 61.1562C45.7005 61.1562 44.6432 60.6302 43.7578 59.5781C42.8776 58.5208 42.4375 57.1276 42.4375 55.3984C42.4375 53.6693 42.8802 52.2786 43.7656 51.2266C44.651 50.1693 45.7005 49.6406 46.9141 49.6406C48.1328 49.6406 49.1849 50.1693 50.0703 51.2266ZM56.9922 59.8828H55.9531V56.8438H52.9922V55.7969H55.9531V52.7578H56.9922V55.7969H59.9531V56.8438H56.9922V59.8828ZM70.1641 59.2656C70.7161 58.6927 70.9922 57.9922 70.9922 57.1641C70.9922 56.3307 70.7161 55.6302 70.1641 55.0625C69.6172 54.4896 68.9583 54.2031 68.1875 54.2031C67.4219 54.2031 66.763 54.4896 66.2109 55.0625C65.6641 55.6302 65.3906 56.3281 65.3906 57.1562C65.3906 57.9792 65.6641 58.6797 66.2109 59.2578C66.763 59.8307 67.4219 60.1172 68.1875 60.1172C68.9583 60.1172 69.6172 59.8333 70.1641 59.2656ZM65.4141 60C64.6536 59.2292 64.2734 58.2839 64.2734 57.1641C64.2734 56.0391 64.6536 55.0911 65.4141 54.3203C66.1797 53.5443 67.1068 53.1562 68.1953 53.1562C69.2839 53.1562 70.2083 53.5443 70.9688 54.3203C71.7292 55.0911 72.1094 56.0391 72.1094 57.1641C72.1094 58.2839 71.7292 59.2292 70.9688 60C70.2083 60.7708 69.2839 61.1562 68.1953 61.1562C67.1068 61.1562 66.1797 60.7708 65.4141 60ZM74.1172 61V53.3203H75.2344V59.9609H79.4766V53.3203H80.5938V59.9609H81.7969V62.9219H80.6719V61H74.1172ZM90.3516 57.5781L84.1094 57.5625C84.151 58.2552 84.4349 58.8542 84.9609 59.3594C85.4922 59.8646 86.1146 60.1172 86.8281 60.1172C87.3073 60.1172 87.7526 60.0104 88.1641 59.7969C88.5755 59.5833 88.8672 59.3698 89.0391 59.1562L89.3125 58.8438L90.0312 59.5625C90 59.6042 89.9531 59.6641 89.8906 59.7422C89.8333 59.8151 89.7031 59.9427 89.5 60.125C89.3021 60.3021 89.0859 60.4609 88.8516 60.6016C88.6224 60.737 88.3229 60.8646 87.9531 60.9844C87.5885 61.099 87.2135 61.1562 86.8281 61.1562C85.7812 61.1562 84.8802 60.7682 84.125 59.9922C83.3698 59.2109 82.9922 58.2656 82.9922 57.1562C82.9922 56.0469 83.3646 55.1042 84.1094 54.3281C84.8594 53.5469 85.7396 53.1562 86.75 53.1562C87.7969 53.1562 88.6719 53.5208 89.375 54.25C90.0781 54.974 90.4297 55.8906 90.4297 57L90.3516 57.5781ZM88.4688 54.8828C87.9948 54.4297 87.4219 54.2031 86.75 54.2031C86.0781 54.2031 85.4922 54.4401 84.9922 54.9141C84.4922 55.388 84.1979 55.9505 84.1094 56.6016H89.3125C89.2292 55.9089 88.9479 55.3359 88.4688 54.8828ZM97.9453 61V57.6406H93.5469V61H92.4297V53.3203H93.5469V56.6016H97.9453V53.3203H99.0703V61H97.9453ZM106.961 59.2656C107.513 58.6927 107.789 57.9922 107.789 57.1641C107.789 56.3307 107.513 55.6302 106.961 55.0625C106.414 54.4896 105.755 54.2031 104.984 54.2031C104.219 54.2031 103.56 54.4896 103.008 55.0625C102.461 55.6302 102.188 56.3281 102.188 57.1562C102.188 57.9792 102.461 58.6797 103.008 59.2578C103.56 59.8307 104.219 60.1172 104.984 60.1172C105.755 60.1172 106.414 59.8333 106.961 59.2656ZM102.211 60C101.451 59.2292 101.07 58.2839 101.07 57.1641C101.07 56.0391 101.451 55.0911 102.211 54.3203C102.977 53.5443 103.904 53.1562 104.992 53.1562C106.081 53.1562 107.005 53.5443 107.766 54.3203C108.526 55.0911 108.906 56.0391 108.906 57.1641C108.906 58.2839 108.526 59.2292 107.766 60C107.005 60.7708 106.081 61.1562 104.992 61.1562C103.904 61.1562 102.977 60.7708 102.211 60ZM112.031 58.8438V61H110.914V53.3203H112.031V57.3984L115.867 53.3203H117.234L114.273 56.4375L117.555 61H116.273L113.555 57.2422L112.031 58.8438Z" fill="black"/>
</svg>
