<svg width="147" height="65" viewBox="0 0 147 65" fill="none" xmlns="http://www.w3.org/2000/svg">
<path d="M51.9146 24.0791H54.7173V28.625H51.9146V33H46.668V28.625H35.1152V23.3784L45.7964 8.49316H51.9146V24.0791ZM46.668 24.0791V14.6284L40.02 24.0791H46.668ZM59.1094 27.9243L62.9546 30.1973L58.4087 37.5459L55.2642 35.9736L59.1094 27.9243ZM76.4214 16.7305C78.7798 16.7305 80.7394 17.5109 82.3003 19.0718C83.8726 20.6326 84.6587 22.5923 84.6587 24.9507C84.6587 27.423 83.7985 29.4738 82.0781 31.103C80.3691 32.7209 78.1361 33.5298 75.3789 33.5298C74.2168 33.5298 73.1003 33.3931 72.0293 33.1196C70.9697 32.8576 70.1038 32.5386 69.4316 32.1626C68.7708 31.7866 68.1898 31.4163 67.6885 31.0518C67.1872 30.6758 66.834 30.3454 66.6289 30.0605L66.27 29.6675L69.4316 26.3521C69.5911 26.5343 69.8133 26.7622 70.0981 27.0356C70.3944 27.2977 71.0324 27.6566 72.0122 28.1123C72.992 28.568 73.9946 28.7959 75.02 28.7959C76.3302 28.7959 77.3556 28.4427 78.0962 27.7363C78.8481 27.0186 79.2241 26.09 79.2241 24.9507C79.2241 23.8114 78.8254 22.8543 78.0278 22.0796C77.2417 21.3049 76.2391 20.9175 75.02 20.9175C74.1769 20.9175 73.425 21.077 72.7642 21.396C72.1034 21.715 71.6419 22.034 71.3799 22.353L71.0039 22.8486L67.3296 22.5068L68.2012 8.49316H83.0693V13.0562H72.9351L72.5762 17.6021C73.5104 17.021 74.7922 16.7305 76.4214 16.7305ZM101.734 15.251L94.2388 38.249H91.9805L99.4878 15.251H101.734ZM115.748 21.3789C117.497 21.3789 118.934 21.9323 120.057 23.0391C121.18 24.1458 121.741 25.5496 121.741 27.2505C121.741 29.0164 121.167 30.4569 120.02 31.5718C118.873 32.6867 117.363 33.2441 115.491 33.2441C114.694 33.2441 113.937 33.1506 113.221 32.9634C112.505 32.7681 111.91 32.5402 111.438 32.2798C110.975 32.0112 110.572 31.7427 110.23 31.4741C109.888 31.2056 109.644 30.9818 109.498 30.8027L109.241 30.4976L110.999 28.752C111.032 28.8008 111.089 28.874 111.17 28.9717C111.251 29.0612 111.434 29.224 111.719 29.46C112.004 29.6878 112.305 29.8913 112.623 30.0703C112.94 30.2412 113.355 30.3999 113.868 30.5464C114.389 30.6847 114.93 30.7539 115.491 30.7539C116.492 30.7539 117.326 30.4202 117.994 29.7529C118.661 29.0856 118.995 28.2515 118.995 27.2505C118.995 26.2495 118.661 25.4154 117.994 24.748C117.326 24.0807 116.492 23.7471 115.491 23.7471C114.759 23.7471 114.1 23.8813 113.514 24.1499C112.936 24.4185 112.537 24.687 112.317 24.9556L112 25.3706H109.998L110.499 15.4951H120.618V17.9976H113.001L112.745 22.1235C113.412 21.6271 114.413 21.3789 115.748 21.3789ZM127.259 30.4854C127.584 30.8109 127.747 31.1934 127.747 31.6328C127.747 32.0641 127.584 32.4425 127.259 32.7681C126.933 33.0854 126.551 33.2441 126.111 33.2441C125.68 33.2441 125.302 33.0854 124.976 32.7681C124.651 32.4425 124.488 32.0641 124.488 31.6328C124.488 31.1934 124.651 30.8109 124.976 30.4854C125.302 30.1598 125.68 29.9971 126.111 29.9971C126.551 29.9971 126.933 30.1598 127.259 30.4854ZM132.642 30.8027C131.218 29.167 130.506 26.9819 130.506 24.2476C130.506 21.5132 131.218 19.3322 132.642 17.7046C134.066 16.0688 135.812 15.251 137.879 15.251C139.946 15.251 141.692 16.0688 143.116 17.7046C144.54 19.3322 145.252 21.5132 145.252 24.2476C145.252 26.9819 144.54 29.167 143.116 30.8027C141.692 32.4303 139.946 33.2441 137.879 33.2441C135.812 33.2441 134.066 32.4303 132.642 30.8027ZM141.138 29.0205C142.05 27.8568 142.505 26.2658 142.505 24.2476C142.505 22.2293 142.05 20.6424 141.138 19.4868C140.235 18.3312 139.148 17.7534 137.879 17.7534C136.609 17.7534 135.519 18.3312 134.607 19.4868C133.704 20.6424 133.252 22.2293 133.252 24.2476C133.252 26.2658 133.704 27.8568 134.607 29.0205C135.519 30.1761 136.609 30.7539 137.879 30.7539C139.148 30.7539 140.235 30.1761 141.138 29.0205Z" fill="black"/>
<path d="M11.9565 8L15.611 15.2414L23.3278 16.6373L17.8696 22.5086L18.9844 30.6127L11.9565 27L4.92865 30.6127L6.04343 22.5086L0.585194 16.6373L8.30203 15.2414L11.9565 8Z" fill="#FFAC46"/>
<path d="M3.14844 49.7969H4.03125V61H2.82812V52.0391H0.75V51.3203C1.11458 51.3099 1.44271 51.25 1.73438 51.1406C2.02604 51.026 2.25781 50.8984 2.42969 50.7578C2.60156 50.612 2.74219 50.4661 2.85156 50.3203C2.96615 50.1745 3.04427 50.0547 3.08594 49.9609L3.14844 49.7969ZM8.82812 51.9922C8.18229 52.8151 7.85938 53.9531 7.85938 55.4062C7.85938 56.8542 8.18229 57.9896 8.82812 58.8125C9.47396 59.6302 10.25 60.0391 11.1562 60.0391C12.0521 60.0391 12.8203 59.6276 13.4609 58.8047C14.1016 57.9766 14.4219 56.8411 14.4219 55.3984C14.4219 53.9453 14.099 52.8099 13.4531 51.9922C12.8073 51.1693 12.0365 50.7578 11.1406 50.7578C10.2448 50.7578 9.47396 51.1693 8.82812 51.9922ZM14.2969 51.2266C15.1823 52.2786 15.625 53.6693 15.625 55.3984C15.625 57.1276 15.1849 58.5208 14.3047 59.5781C13.4245 60.6302 12.375 61.1562 11.1562 61.1562C9.92708 61.1562 8.86979 60.6302 7.98438 59.5781C7.10417 58.5208 6.66406 57.1276 6.66406 55.3984C6.66406 53.6693 7.10677 52.2786 7.99219 51.2266C8.8776 50.1693 9.92708 49.6406 11.1406 49.6406C12.3594 49.6406 13.4115 50.1693 14.2969 51.2266ZM19.7031 51.9922C19.0573 52.8151 18.7344 53.9531 18.7344 55.4062C18.7344 56.8542 19.0573 57.9896 19.7031 58.8125C20.349 59.6302 21.125 60.0391 22.0312 60.0391C22.9271 60.0391 23.6953 59.6276 24.3359 58.8047C24.9766 57.9766 25.2969 56.8411 25.2969 55.3984C25.2969 53.9453 24.974 52.8099 24.3281 51.9922C23.6823 51.1693 22.9115 50.7578 22.0156 50.7578C21.1198 50.7578 20.349 51.1693 19.7031 51.9922ZM25.1719 51.2266C26.0573 52.2786 26.5 53.6693 26.5 55.3984C26.5 57.1276 26.0599 58.5208 25.1797 59.5781C24.2995 60.6302 23.25 61.1562 22.0312 61.1562C20.8021 61.1562 19.7448 60.6302 18.8594 59.5781C17.9792 58.5208 17.5391 57.1276 17.5391 55.3984C17.5391 53.6693 17.9818 52.2786 18.8672 51.2266C19.7526 50.1693 20.8021 49.6406 22.0156 49.6406C23.2344 49.6406 24.2865 50.1693 25.1719 51.2266ZM32.0938 59.8828H31.0547V56.8438H28.0938V55.7969H31.0547V52.7578H32.0938V55.7969H35.0547V56.8438H32.0938V59.8828ZM45.2656 59.2656C45.8177 58.6927 46.0938 57.9922 46.0938 57.1641C46.0938 56.3307 45.8177 55.6302 45.2656 55.0625C44.7188 54.4896 44.0599 54.2031 43.2891 54.2031C42.5234 54.2031 41.8646 54.4896 41.3125 55.0625C40.7656 55.6302 40.4922 56.3281 40.4922 57.1562C40.4922 57.9792 40.7656 58.6797 41.3125 59.2578C41.8646 59.8307 42.5234 60.1172 43.2891 60.1172C44.0599 60.1172 44.7188 59.8333 45.2656 59.2656ZM40.5156 60C39.7552 59.2292 39.375 58.2839 39.375 57.1641C39.375 56.0391 39.7552 55.0911 40.5156 54.3203C41.2812 53.5443 42.2083 53.1562 43.2969 53.1562C44.3854 53.1562 45.3099 53.5443 46.0703 54.3203C46.8307 55.0911 47.2109 56.0391 47.2109 57.1641C47.2109 58.2839 46.8307 59.2292 46.0703 60C45.3099 60.7708 44.3854 61.1562 43.2969 61.1562C42.2083 61.1562 41.2812 60.7708 40.5156 60ZM49.2188 61V53.3203H50.3359V59.9609H54.5781V53.3203H55.6953V59.9609H56.8984V62.9219H55.7734V61H49.2188ZM65.4531 57.5781L59.2109 57.5625C59.2526 58.2552 59.5365 58.8542 60.0625 59.3594C60.5938 59.8646 61.2161 60.1172 61.9297 60.1172C62.4089 60.1172 62.8542 60.0104 63.2656 59.7969C63.6771 59.5833 63.9688 59.3698 64.1406 59.1562L64.4141 58.8438L65.1328 59.5625C65.1016 59.6042 65.0547 59.6641 64.9922 59.7422C64.9349 59.8151 64.8047 59.9427 64.6016 60.125C64.4036 60.3021 64.1875 60.4609 63.9531 60.6016C63.724 60.737 63.4245 60.8646 63.0547 60.9844C62.6901 61.099 62.3151 61.1562 61.9297 61.1562C60.8828 61.1562 59.9818 60.7682 59.2266 59.9922C58.4714 59.2109 58.0938 58.2656 58.0938 57.1562C58.0938 56.0469 58.4661 55.1042 59.2109 54.3281C59.9609 53.5469 60.8411 53.1562 61.8516 53.1562C62.8984 53.1562 63.7734 53.5208 64.4766 54.25C65.1797 54.974 65.5312 55.8906 65.5312 57L65.4531 57.5781ZM63.5703 54.8828C63.0964 54.4297 62.5234 54.2031 61.8516 54.2031C61.1797 54.2031 60.5938 54.4401 60.0938 54.9141C59.5938 55.388 59.2995 55.9505 59.2109 56.6016H64.4141C64.3307 55.9089 64.0495 55.3359 63.5703 54.8828ZM73.0469 61V57.6406H68.6484V61H67.5312V53.3203H68.6484V56.6016H73.0469V53.3203H74.1719V61H73.0469ZM82.0625 59.2656C82.6146 58.6927 82.8906 57.9922 82.8906 57.1641C82.8906 56.3307 82.6146 55.6302 82.0625 55.0625C81.5156 54.4896 80.8568 54.2031 80.0859 54.2031C79.3203 54.2031 78.6615 54.4896 78.1094 55.0625C77.5625 55.6302 77.2891 56.3281 77.2891 57.1562C77.2891 57.9792 77.5625 58.6797 78.1094 59.2578C78.6615 59.8307 79.3203 60.1172 80.0859 60.1172C80.8568 60.1172 81.5156 59.8333 82.0625 59.2656ZM77.3125 60C76.5521 59.2292 76.1719 58.2839 76.1719 57.1641C76.1719 56.0391 76.5521 55.0911 77.3125 54.3203C78.0781 53.5443 79.0052 53.1562 80.0938 53.1562C81.1823 53.1562 82.1068 53.5443 82.8672 54.3203C83.6276 55.0911 84.0078 56.0391 84.0078 57.1641C84.0078 58.2839 83.6276 59.2292 82.8672 60C82.1068 60.7708 81.1823 61.1562 80.0938 61.1562C79.0052 61.1562 78.0781 60.7708 77.3125 60ZM87.1328 58.8438V61H86.0156V53.3203H87.1328V57.3984L90.9688 53.3203H92.3359L89.375 56.4375L92.6562 61H91.375L88.6562 57.2422L87.1328 58.8438Z" fill="black"/>
</svg>
